#!OML:ASF \\Waltz\H\Terrain\Patient Classification 1\Animal2\Wednesday\Animal2.ASF
:FULLY-SPECIFIED
:DEGREES
1495
root 11.1705 17.0272 -13.9329 1.90364 -38.1838 -5.84661
lowerback 20.9549 -3.94663 0.131582
upperback -1.31154 -4.99979 1.7258
thorax -13.1198 -2.23817 3.45259
lowerneck 9.36806 8.68681 14.7017
upperneck -31.2895 8.5751 -23.3981
head -9.1894 4.91469 -12.0679
rclavicle 2.59911e-014 -6.36111e-015
rhumerus -7.64049 -32.1086 -9.27735
rradius 130.624
rwrist -17.2658
rhand -1.06131 3.18659
rfingers 7.12502
rthumb 24.5734 -25.2563
lclavicle 2.59911e-014 -6.36111e-015
lhumerus -12.1997 25.0992 -0.262992
lradius 114.495
lwrist 22.3609
lhand -40.3277 23.0516
lfingers 7.12502
lthumb -13.2837 52.6083
rfemur -44.1487 -47.4569 3.54087
rtibia 83.3327
rfoot 13.6487 -16.9885
rtoes 52.5704
lfemur -18.863 28.5158 1.35142
ltibia 43.328
lfoot -7.14599 5.59625
ltoes -44.1072
1496
root 11.167 17.1357 -13.9295 1.6427 -38.1992 -5.12768
lowerback 20.6732 -3.72603 -0.255778
upperback -1.39918 -4.77446 1.9857
thorax -13.0126 -2.10004 3.87391
lowerneck 9.03165 8.78552 14.419
upperneck -30.4775 8.56183 -23.9898
head -8.80776 5.01451 -12.1121
rclavicle 1.82882e-014 -1.15295e-014
rhumerus -5.83236 -32.3008 -8.85663
rradius 129.709
rwrist -16.9837
rhand -3.19703 3.11137
rfingers 7.12502
rthumb 22.5249 -25.5948
lclavicle 1.82882e-014 -1.15295e-014
lhumerus -12.7468 25.3319 0.082084
lradius 112.622
lwrist 21.4746
lhand -40.149 21.7788
lfingers 7.12502
lthumb -13.1114 51.3466
rfemur -45.4465 -48.3763 4.01738
rtibia 83.3777
rfoot 11.8336 -18.9086
rtoes 53.4441
lfemur -18.6157 28.9175 0.653387
ltibia 42.4188
lfoot -5.39227 4.46041
ltoes -43.2733
1497
root 11.1607 17.243 -13.9328 0.961967 -38.0635 -3.6835
lowerback 20.4839 -3.65237 -0.679714
upperback -1.63786 -4.81504 1.71963
thorax -13.1663 -2.0933 3.82597
lowerneck 8.8832 8.79294 14.198
upperneck -29.7195 8.57062 -24.1382
head -8.51823 5.07044 -12.0196
rclavicle 2.58669e-014 -2.98177e-015
rhumerus -4.52968 -32.2039 -8.8881
rradius 128.887
rwrist -16.5875
rhand -5.60462 3.00449
rfingers 7.12502
rthumb 20.2124 -25.9639
lclavicle 2.58669e-014 -2.98177e-015
lhumerus -13.0017 25.4026 -0.12223
lradius 110.807
lwrist 20.6642
lhand -39.4156 20.3321
lfingers 7.12502
lthumb -12.4044 49.9441
rfemur -46.5457 -49.29 3.66875
rtibia 83.2983
rfoot 10.2005 -20.696
rtoes 55.0864
lfemur -18.6836 29.4629 -0.704268
ltibia 41.7404
lfoot -3.35947 3.0915
ltoes -42.7745
1498
root 11.1486 17.3461 -13.9425 0.460075 -37.8616 -2.52314
lowerback 20.306 -3.62532 -0.686102
upperback -1.80666 -4.83856 1.26184
thorax -13.3002 -2.11877 3.31896
lowerneck 8.73744 8.68924 14.1446
upperneck -29.3399 8.4492 -24.1096
head -8.39496 5.01692 -11.9416
rclavicle 1.91827e-014 -5.61567e-015
rhumerus -3.86301 -32.1576 -9.11086
rradius 128.164
rwrist -15.9611
rhand -8.53288 3.07539
rfingers 7.12502
rthumb 17.396 -26.1662
lclavicle 1.91827e-014 -5.61567e-015
lhumerus -13.026 25.4285 -0.657764
lradius 108.889
lwrist 19.9297
lhand -38.3137 19.8977
lfingers 7.12502
lthumb -11.3418 49.571
rfemur -47.2606 -49.9803 3.43927
rtibia 82.9564
rfoot 8.53728 -22.2081
rtoes 56.8689
lfemur -19.01 30.169 -1.77508
ltibia 41.3835
lfoot -0.961281 1.65032
ltoes -41.6367
1499
root 11.1308 17.4428 -13.9564 0.283237 -37.6635 -1.89487
lowerback 20.0952 -3.62874 -0.384175
upperback -1.89033 -4.81183 0.926119
thorax -13.3335 -2.14325 2.75311
lowerneck 8.39557 8.69047 14.1146
upperneck -28.912 8.45977 -24.1194
head -8.18163 5.02131 -11.8567
rclavicle -4.39811e-015 -1.63997e-014
rhumerus -3.34544 -32.0728 -9.23969
rradius 127.546
rwrist -15.357
rhand -12.0638 2.84032
rfingers 7.12502
rthumb 13.9955 -26.6686
lclavicle -4.39811e-015 -1.63997e-014
lhumerus -13.1731 25.4368 -1.37206
lradius 107.22
lwrist 19.6232
lhand -37.3318 20.6958
lfingers 7.12502
lthumb -10.3948 50.4189
rfemur -47.7521 -50.5209 3.66326
rtibia 82.3791
rfoot 8.6654 -22.7131
rtoes 57.0934
lfemur -19.5877 31.2252 -2.31069
ltibia 41.418
lfoot 1.72116 -0.0154948
ltoes -38.0035
1500
root 11.1115 17.5333 -13.9793 0.178308 -37.3048 -1.41974
lowerback 19.9605 -3.69179 0.0363852
upperback -1.99077 -4.83104 0.634308
thorax -13.4354 -2.19426 2.1917
lowerneck 6.68693 9.08394 13.4401
upperneck -26.8811 9.15297 -23.3322
head -7.14134 5.29956 -11.0449
rclavicle 3.02153e-014 7.45443e-015
rhumerus -2.73537 -31.9759 -9.31401
rradius 126.862
rwrist -15.0455
rhand -15.4302 2.27011
rfingers 7.12502
rthumb 10.7498 -27.4348
lclavicle 3.02153e-014 7.45443e-015
lhumerus -13.1815 25.6911 -1.91874
lradius 105.977
lwrist 19.3891
lhand -35.901 21.7529
lfingers 7.12502
lthumb -9.01431 51.5403
rfemur -47.8923 -50.8701 3.82002
rtibia 81.6232
rfoot 10.1844 -22.4356
rtoes 56.4938
lfemur -20.5445 32.6021 -2.70006
ltibia 41.8438
lfoot 4.78211 -1.73787
ltoes -34.1058
1501
root 11.0877 17.6099 -14.0077 0.0425693 -36.8977 -0.984875
lowerback 19.8977 -3.74434 0.510871
upperback -2.09625 -4.83193 0.282249
thorax -13.5971 -2.24369 1.53297
lowerneck 3.04178 9.9591 12.0553
upperneck -22.845 10.7177 -21.3775
head -5.1742 5.86597 -9.42446
rclavicle 1.31074e-014 -8.64713e-015
rhumerus -2.24999 -32.0111 -9.50021
rradius 126.14
rwrist -14.6456
rhand -18.2401 1.87608
rfingers 7.12502
rthumb 8.03859 -27.9511
lclavicle 1.31074e-014 -8.64713e-015
lhumerus -13.0525 26.1427 -2.36541
lradius 104.944
lwrist 19.0126
lhand -34.0753 22.4979
lfingers 7.12502
lthumb -7.25223 52.3537
rfemur -47.6966 -51.0348 3.87199
rtibia 80.7144
rfoot 11.9952 -21.5878
rtoes 55.6523
lfemur -21.7298 34.0898 -3.03418
ltibia 42.6471
lfoot 8.05862 -2.77162
ltoes -31.2768
1502
root 11.0573 17.6717 -14.0369 -0.100731 -36.5179 -0.47642
lowerback 19.6205 -3.70059 0.964351
upperback -2.05886 -4.73631 -0.251323
thorax -13.482 -2.2636 0.631517
lowerneck 7.46665 8.52329 13.8991
upperneck -27.2058 8.47526 -23.4043
head -7.50719 4.97206 -11.2719
rclavicle -2.05369e-014 -1.09332e-014
rhumerus -2.38643 -32.2618 -9.67308
rradius 125.549
rwrist -13.9224
rhand -21.0134 1.15768
rfingers 7.12502
rthumb 5.36136 -28.7545
lclavicle -2.05369e-014 -1.09332e-014
lhumerus -12.4548 26.8314 -2.84318
lradius 103.963
lwrist 18.6556
lhand -32.2351 22.935
lfingers 7.12502
lthumb -5.47575 52.8443
rfemur -47.4999 -51.1865 3.95876
rtibia 79.7109
rfoot 14.3371 -19.8448
rtoes 53.7399
lfemur -23.1544 35.5998 -3.47688
ltibia 43.7995
lfoot 11.2405 -3.13941
ltoes -28.3956
1503
root 11.0245 17.7345 -14.0725 -0.306088 -36.0323 0.0172161
lowerback 19.3401 -3.58514 1.29531
upperback -1.87519 -4.5676 -0.72809
thorax -13.1747 -2.2382 -0.163381
lowerneck 6.86416 8.29299 14.1067
upperneck -26.8604 8.17409 -23.3307
head -7.33775 4.77942 -11.2035
rclavicle -5.87906e-014 -6.55989e-015
rhumerus -2.83049 -32.7488 -9.56168
rradius 124.99
rwrist -13.1636
rhand -23.6585 0.539711
rfingers 7.12502
rthumb 2.80718 -29.4216
lclavicle -5.87906e-014 -6.55989e-015
lhumerus -11.5935 27.8079 -3.02329
lradius 103.076
lwrist 18.6801
lhand -30.3684 23.1315
lfingers 7.12502
lthumb -3.6732 53.0796
rfemur -46.8296 -51.1391 3.75416
rtibia 78.5917
rfoot 15.686 -18.4475
rtoes 52.6388
lfemur -24.7886 37.0891 -3.88321
ltibia 45.3222
lfoot 13.9897 -3.28298
ltoes -25.1163
